<svg width="62" height="25" viewBox="0 0 62 25" fill="none" xmlns="http://www.w3.org/2000/svg">
<path d="M7.94987 24.2521C5.58187 24.2521 3.74721 23.6228 2.44587 22.3641C1.16587 21.1055 0.525875 19.4735 0.525875 17.4681C0.525875 15.6335 0.973875 13.8415 1.86987 12.0921C2.78721 10.3428 3.93921 8.73212 5.32587 7.26012C6.45654 6.06545 7.74721 5.03079 9.19788 4.15612C10.6699 3.28145 12.2059 2.59878 13.8059 2.10812C15.4272 1.61745 17.0059 1.37212 18.5419 1.37212C19.7579 1.37212 20.8565 1.54279 21.8379 1.88412C22.8192 2.20412 23.5979 2.71612 24.1739 3.42012C24.7499 4.12412 25.0379 5.04145 25.0379 6.17212C25.0379 7.17479 24.7925 8.11345 24.3019 8.98812C23.8325 9.84145 23.1925 10.5881 22.3819 11.2281C21.5925 11.8681 20.7179 12.3695 19.7579 12.7321C18.7979 13.0948 17.8272 13.2761 16.8459 13.2761C15.5659 13.2761 14.4885 12.9881 13.6139 12.4121C12.7392 11.8148 12.3019 11.0681 12.3019 10.1721C12.3019 9.02012 13.0379 7.88945 14.5099 6.78012C14.7659 6.58812 14.9685 6.49212 15.1179 6.49212C15.2245 6.49212 15.2779 6.53479 15.2779 6.62012C15.2779 6.83345 15.1072 7.00412 14.7659 7.13212C13.5712 8.09212 12.9739 9.06279 12.9739 10.0441C12.9739 10.7481 13.2939 11.3455 13.9339 11.8361C14.5739 12.3055 15.3739 12.5401 16.3339 12.5401C17.1872 12.5401 18.0405 12.3588 18.8939 11.9961C19.7685 11.6335 20.5685 11.1428 21.2939 10.5241C22.0192 9.90545 22.5952 9.21212 23.0219 8.44412C23.4699 7.65479 23.6939 6.83345 23.6939 5.98012C23.6939 4.59345 23.2245 3.58012 22.2859 2.94012C21.3472 2.30012 20.1525 1.98012 18.7019 1.98012C17.0592 1.98012 15.4272 2.28945 13.8059 2.90812C12.2059 3.52678 10.7019 4.38012 9.29387 5.46812C7.88587 6.55612 6.62721 7.80412 5.51787 9.21212C3.29921 12.0068 2.18987 14.6308 2.18987 17.0841C2.18987 18.3855 2.48854 19.4948 3.08587 20.4121C3.68321 21.3081 4.50454 21.9908 5.54987 22.4601C6.61654 22.9295 7.83254 23.1641 9.19788 23.1641C11.2245 23.1641 13.1872 22.7268 15.0859 21.8521C16.9845 20.9561 18.6059 19.7615 19.9499 18.2681C20.3125 17.8841 20.5792 17.6921 20.7499 17.6921C20.8779 17.6921 20.9419 17.7881 20.9419 17.9801C20.9419 18.2361 20.8245 18.4815 20.5899 18.7161C19.8645 19.4841 19.0005 20.1988 17.9979 20.8601C16.9952 21.5215 15.9179 22.1081 14.7659 22.6201C13.6352 23.1321 12.4832 23.5268 11.3099 23.8041C10.1365 24.1028 9.01654 24.2521 7.94987 24.2521ZM33.3766 24.4441C33.27 24.4441 33.2166 24.3375 33.2166 24.1241C33.2166 23.4201 33.814 21.6281 35.0086 18.7481C35.3713 17.9161 35.734 17.0841 36.0966 16.2521C36.4593 15.4201 36.8113 14.5881 37.1526 13.7561L38.6246 9.43612C38.8593 8.71079 39.0406 8.09212 39.1686 7.58012C39.318 7.04678 39.3926 6.60945 39.3926 6.26812C39.3926 4.77479 38.966 3.65478 38.1126 2.90812C37.2593 2.14012 36.1286 1.75612 34.7206 1.75612C33.398 1.75612 32.086 2.05479 30.7846 2.65212C29.5046 3.22812 28.3313 4.01745 27.2646 5.02012C26.2193 6.02279 25.3766 7.14279 24.7366 8.38012C23.8193 10.1295 23.3606 11.7295 23.3606 13.1801C23.3606 14.1828 23.606 15.0895 24.0966 15.9001C24.5873 16.7108 25.2273 17.2655 26.0166 17.5641C26.5713 17.7561 27.1153 17.8521 27.6486 17.8521C28.3953 17.8521 29.0886 17.6921 29.7286 17.3721C30.3686 17.0308 30.8806 16.5615 31.2646 15.9641C31.67 15.3668 31.8726 14.6948 31.8726 13.9481C31.8726 13.8628 31.8726 13.7775 31.8726 13.6921C31.8726 13.5855 31.862 13.4895 31.8406 13.4041C31.7553 13.1481 31.8193 13.0201 32.0326 13.0201C32.2673 13.0201 32.3953 13.1908 32.4166 13.5321C32.438 13.6175 32.4486 13.7028 32.4486 13.7881C32.47 13.8735 32.4806 13.9695 32.4806 14.0761C32.4806 14.8441 32.2246 15.5588 31.7126 16.2201C31.2006 16.8815 30.5393 17.4255 29.7286 17.8521C28.9393 18.2575 28.118 18.4601 27.2646 18.4601C26.39 18.4601 25.5473 18.2468 24.7366 17.8201C23.0086 16.8815 22.1446 15.2495 22.1446 12.9241C22.1446 11.2601 22.5926 9.64945 23.4886 8.09212C24.2993 6.68412 25.3553 5.45745 26.6566 4.41212C27.958 3.36679 29.3873 2.55612 30.9446 1.98012C32.502 1.38278 34.0486 1.08412 35.5846 1.08412C36.6513 1.08412 37.6113 1.25478 38.4646 1.59612C39.318 1.91612 39.99 2.41745 40.4806 3.10012C40.9926 3.76145 41.2486 4.61479 41.2486 5.66012C41.2486 7.64412 40.3526 10.6201 38.5606 14.5881C36.5126 19.0895 35.4886 21.6175 35.4886 22.1721C35.4886 22.3215 35.542 22.3748 35.6486 22.3321C36.2033 21.9695 38.71 19.1108 43.1686 13.7561C45.4513 11.0255 47.382 8.81745 48.9606 7.13212C50.5606 5.42545 51.8193 4.24145 52.7366 3.58012C53.5473 2.96145 54.2513 2.46012 54.8486 2.07612C55.446 1.67079 55.926 1.36145 56.2886 1.14812C57.6113 0.422785 58.8273 0.0601177 59.9366 0.0601177C60.4273 0.0601177 60.8006 0.113451 61.0566 0.220118C61.334 0.305451 61.4726 0.561451 61.4726 0.988117C61.4726 1.26545 61.3766 1.40412 61.1846 1.40412C61.1206 1.40412 60.9713 1.36145 60.7366 1.27612C60.502 1.16945 60.2673 1.11612 60.0326 1.11612C58.902 1.11612 57.718 1.44678 56.4806 2.10812C54.006 3.43079 51.1686 5.79879 47.9686 9.21212C47.0513 10.1935 45.974 11.4095 44.7366 12.8601C43.5206 14.3108 42.1446 16.0068 40.6086 17.9481C38.1766 21.0201 36.7153 22.6948 36.2246 22.9721C35.3073 23.5055 34.614 23.8788 34.1446 24.0921C33.6966 24.3268 33.4406 24.4441 33.3766 24.4441Z" fill="white"/>
</svg>
